<svg width="272" height="209" viewBox="0 0 272 209" fill="none" xmlns="http://www.w3.org/2000/svg">
<path d="M1 1H271V208H1V1Z" fill="white"/>
<path d="M117.38 179.591C117.373 181.806 120.387 182.34 120.996 180.21C125.821 163.333 128.788 144.462 128.853 125.083C129.069 61.3652 97.8429 16.2886 71.9464 16.201C46.05 16.1133 12.444 60.9703 12.2283 124.688C12.1627 144.061 15.1913 162.947 20.1665 179.854C20.7547 181.853 23.594 181.357 23.601 179.273V179.273C23.8168 115.555 44.9849 63.9729 70.8813 64.0606C96.7777 64.1483 117.596 115.873 117.38 179.591V179.591Z" fill="#0F4361"/>
<path d="M117.38 179.591C117.373 181.806 120.387 182.34 120.996 180.21C125.821 163.333 128.788 144.462 128.853 125.083C129.069 61.3652 97.8429 16.2886 71.9464 16.201C46.05 16.1133 12.444 60.9703 12.2283 124.688C12.1627 144.061 15.1913 162.947 20.1665 179.854C20.7547 181.853 23.594 181.357 23.601 179.273V179.273C23.8168 115.555 44.9849 63.9729 70.8813 64.0606C96.7777 64.1483 117.596 115.873 117.38 179.591V179.591Z" fill="#0F4361"/>
<path d="M39.5727 116.877L102.613 117.09L109.892 139.394L70.4922 139.261L31.0918 139.127L39.5727 116.877Z" fill="#AC7F09"/>
<path d="M154.332 118.85L157.004 118.859L154.528 112.909L146.583 112.882L144.189 118.921L148.725 118.936L148.723 119.481L139.494 119.45L139.496 118.835L143.539 118.849L150.134 102.418L153.626 93.7282L164.739 118.885L167.973 118.896L167.971 119.546L154.33 119.5L154.332 118.85ZM146.831 112.233L154.249 112.258L150.465 103.245L146.831 112.233ZM166.564 104.09L175.389 103.909L175.267 108.708C175.48 108.181 175.722 107.678 175.993 107.199C176.276 106.707 176.594 106.269 176.947 105.883C177.3 105.498 177.693 105.183 178.128 104.938C178.562 104.682 179.043 104.525 179.571 104.468C180.239 104.471 180.865 104.596 181.45 104.844C182.035 105.08 182.567 105.41 183.046 105.834C183.537 106.246 183.969 106.733 184.342 107.297C184.715 107.861 185.03 108.46 185.285 109.093C185.541 109.727 185.726 110.378 185.841 111.046C185.956 111.703 186.001 112.348 185.975 112.98C185.961 113.637 185.942 114.31 185.916 115.002C185.89 115.599 185.859 116.261 185.821 116.988C185.795 117.703 185.758 118.406 185.709 119.097L188.187 119.14L188.185 119.791L178.43 119.547L178.432 118.896L180.348 118.938C180.64 115.81 180.721 112.64 180.591 109.429C180.631 107.964 180.553 106.898 180.356 106.229C180.17 105.56 179.773 105.213 179.164 105.188C178.964 105.246 178.7 105.356 178.372 105.519C178.043 105.682 177.691 105.968 177.314 106.377C176.95 106.774 176.579 107.324 176.201 108.025C175.836 108.716 175.51 109.611 175.225 110.712L175.022 118.885L176.85 118.891L176.848 119.541L167.707 119.51L167.709 118.86L169.291 118.865L169.691 104.681L166.562 104.741L166.564 104.09ZM196.902 120.26C196.897 121.795 196.67 123.136 196.22 124.283C195.783 125.43 195.194 126.389 194.453 127.16C193.712 127.931 192.86 128.508 191.898 128.891C190.948 129.286 189.957 129.494 188.925 129.514C188.222 129.512 187.473 129.421 186.676 129.243C185.868 129.064 185.125 128.78 184.447 128.391C183.757 128.002 183.19 127.496 182.747 126.874C182.292 126.263 182.066 125.518 182.069 124.639C182.07 124.311 182.118 123.989 182.213 123.673C182.296 123.357 182.426 123.07 182.602 122.813C182.779 122.567 183.008 122.351 183.29 122.165C183.572 121.99 183.906 121.868 184.293 121.799C184.938 121.696 185.471 121.75 185.892 121.963C186.313 122.187 186.635 122.487 186.856 122.862C187.077 123.238 187.217 123.655 187.274 124.112C187.319 124.581 187.306 125.003 187.234 125.377C187.175 125.612 187.133 125.852 187.109 126.098C187.073 126.344 187.054 126.584 187.054 126.818C187.053 127.064 187.081 127.305 187.139 127.539C187.185 127.774 187.278 127.985 187.418 128.173C187.558 128.361 187.751 128.514 187.997 128.632C188.242 128.762 188.553 128.839 188.928 128.864C189.478 128.865 189.93 128.674 190.283 128.288C190.648 127.903 190.931 127.388 191.132 126.744C191.345 126.112 191.494 125.38 191.579 124.548C191.664 123.728 191.708 122.879 191.711 122L191.763 106.443L188.459 106.432L188.461 105.799L196.951 105.74L196.902 120.26ZM197.548 100.891C197.546 101.324 197.463 101.734 197.297 102.12C197.144 102.495 196.926 102.822 196.644 103.102C196.362 103.383 196.033 103.604 195.657 103.767C195.282 103.93 194.877 104.011 194.443 104.009C194.01 104.008 193.6 103.924 193.214 103.759C192.839 103.593 192.512 103.37 192.232 103.088C191.951 102.805 191.73 102.476 191.567 102.101C191.404 101.714 191.324 101.303 191.325 100.87C191.327 100.436 191.41 100.032 191.575 99.6575C191.741 99.2831 191.964 98.9557 192.247 98.6754C192.529 98.3951 192.858 98.1794 193.233 98.0284C193.62 97.8656 194.031 97.785 194.464 97.7864C194.898 97.7879 195.302 97.8713 195.676 98.0366C196.051 98.1903 196.378 98.4082 196.659 98.6904C196.939 98.9726 197.155 99.3014 197.306 99.6769C197.468 100.052 197.549 100.457 197.548 100.891ZM217.254 105.774L216.769 119.202L218.598 119.032L218.666 119.683L211.826 120.275L211.871 117.392C211.67 117.825 211.464 118.205 211.252 118.533C211.04 118.86 210.822 119.147 210.598 119.392C210.387 119.626 210.175 119.824 209.964 119.987C209.752 120.163 209.552 120.303 209.364 120.407C208.918 120.664 208.478 120.809 208.045 120.842C207.025 120.839 206.135 120.631 205.375 120.218C204.614 119.817 203.983 119.282 203.482 118.612C202.98 117.942 202.602 117.185 202.347 116.341C202.104 115.484 201.984 114.611 201.987 113.72L202.381 106.233L200.29 106.191L200.292 105.541L207.955 105.672C207.69 107.816 207.485 109.626 207.339 111.102C207.205 112.566 207.108 113.755 207.046 114.669C206.972 115.747 206.928 116.614 206.914 117.27C206.912 117.879 206.957 118.372 207.05 118.747C207.142 119.122 207.264 119.416 207.416 119.627C207.568 119.839 207.731 119.98 207.907 120.051C208.082 120.133 208.252 120.181 208.416 120.193C208.662 120.135 208.932 120.019 209.226 119.844C209.531 119.67 209.837 119.401 210.143 119.039C210.46 118.665 210.767 118.18 211.062 117.583C211.357 116.986 211.629 116.249 211.878 115.371L212.031 106.371L209.43 106.327L209.432 105.677L217.254 105.774ZM220.126 119.442L222.833 119.451L223.384 96.7242L220.291 96.6434L220.293 95.993L228.642 96.1795L228.053 119.469L231.622 119.481L231.62 120.114L220.123 120.075L220.126 119.442ZM246.015 120.496C246.273 120.474 246.519 120.346 246.754 120.112C246.954 119.914 247.16 119.598 247.373 119.165C247.585 118.72 247.763 118.088 247.907 117.268L248.557 117.341C248.389 118.313 248.164 119.056 247.881 119.571C247.61 120.086 247.333 120.46 247.051 120.693C246.722 120.973 246.376 121.124 246.013 121.147C245.731 121.146 245.368 121.103 244.923 121.02C244.49 120.936 244.057 120.788 243.624 120.576C243.191 120.375 242.793 120.105 242.431 119.763C242.069 119.422 241.819 118.988 241.68 118.46C241.197 119.267 240.55 119.921 239.74 120.422C238.929 120.935 238.008 121.19 236.977 121.186C236.462 121.185 235.94 121.124 235.413 121.005C234.886 120.886 234.401 120.691 233.956 120.42C233.524 120.149 233.167 119.797 232.888 119.362C232.62 118.916 232.487 118.365 232.489 117.708C232.492 116.888 232.652 116.18 232.971 115.583C233.301 114.975 233.736 114.472 234.277 114.076C234.817 113.667 235.433 113.365 236.125 113.168C236.818 112.971 237.533 112.874 238.271 112.876C238.775 112.878 239.261 112.938 239.729 113.057C240.209 113.176 240.695 113.383 241.186 113.677C241.212 113.08 241.261 112.482 241.333 111.885C241.417 111.287 241.489 110.731 241.55 110.215C241.586 109.911 241.61 109.665 241.622 109.477C241.646 109.29 241.665 109.138 241.677 109.021C241.689 108.903 241.695 108.816 241.695 108.757C241.707 108.698 241.713 108.646 241.713 108.599C241.717 107.532 241.526 106.682 241.142 106.048C240.757 105.414 240.243 105.096 239.598 105.094C239.293 105.116 238.983 105.168 238.666 105.249C238.349 105.33 238.062 105.446 237.803 105.597C237.545 105.737 237.334 105.918 237.169 106.14C237.004 106.35 236.921 106.602 236.92 106.895C236.919 107.212 237.018 107.464 237.216 107.652C237.415 107.828 237.631 108.011 237.865 108.199C238.11 108.376 238.332 108.582 238.531 108.817C238.729 109.052 238.828 109.374 238.826 109.784C238.825 110.218 238.753 110.581 238.612 110.874C238.482 111.154 238.305 111.382 238.082 111.557C237.859 111.732 237.606 111.86 237.325 111.941C237.043 112.011 236.762 112.045 236.481 112.044C236.188 112.043 235.895 111.995 235.602 111.9C235.322 111.794 235.064 111.635 234.831 111.423C234.609 111.212 234.422 110.935 234.271 110.595C234.131 110.255 234.062 109.844 234.064 109.364C234.066 108.719 234.227 108.105 234.545 107.52C234.863 106.935 235.281 106.421 235.798 105.977C236.315 105.534 236.903 105.178 237.56 104.911C238.217 104.632 238.885 104.482 239.565 104.461C240.198 104.463 240.883 104.594 241.62 104.854C242.37 105.115 243.065 105.557 243.708 106.18C244.362 106.803 244.904 107.637 245.334 108.681C245.764 109.726 245.977 111.033 245.971 112.604C245.969 113.342 245.937 114.045 245.876 114.713C245.827 115.38 245.772 116.001 245.712 116.575C245.651 117.138 245.591 117.653 245.531 118.122C245.482 118.59 245.457 118.994 245.456 119.334C245.455 119.674 245.483 119.944 245.541 120.143C245.611 120.343 245.745 120.46 245.944 120.496L246.015 120.496ZM241.384 117.527C241.315 117.129 241.264 116.713 241.23 116.279C241.197 115.833 241.18 115.388 241.182 114.943L241.184 114.468C240.856 114.198 240.5 113.997 240.113 113.867C239.739 113.737 239.399 113.671 239.094 113.67C238.356 113.668 237.793 113.97 237.404 114.578C237.015 115.186 236.819 115.994 236.816 117.002C236.814 117.424 236.854 117.817 236.935 118.18C237.027 118.544 237.149 118.861 237.301 119.131C237.464 119.389 237.656 119.595 237.879 119.748C238.112 119.889 238.37 119.961 238.651 119.962C238.933 119.963 239.202 119.893 239.461 119.753C239.731 119.614 239.983 119.433 240.218 119.211C240.453 118.977 240.671 118.715 240.871 118.422C241.072 118.13 241.243 117.832 241.384 117.527Z" fill="#0F4361"/>
<path d="M159.309 146.405C159.302 147.565 159.143 148.683 158.831 149.76C158.532 150.824 158.103 151.823 157.547 152.757C156.99 153.68 156.329 154.525 155.562 155.294C154.796 156.05 153.942 156.701 153.001 157.246C152.06 157.791 151.05 158.212 149.97 158.51C148.901 158.796 147.787 158.936 146.627 158.928L139.033 158.88L139.191 133.673L146.785 133.722C147.945 133.729 149.057 133.889 150.122 134.2C151.198 134.5 152.203 134.928 153.137 135.485C154.071 136.042 154.917 136.709 155.674 137.487C156.431 138.254 157.081 139.108 157.626 140.049C158.171 140.978 158.587 141.982 158.873 143.062C159.171 144.131 159.317 145.245 159.309 146.405ZM154.264 146.373C154.271 145.33 154.078 144.35 153.685 143.434C153.304 142.517 152.77 141.717 152.083 141.033C151.408 140.337 150.608 139.787 149.685 139.383C148.774 138.979 147.796 138.773 146.753 138.767L144.24 138.751L144.145 153.867L146.659 153.883C147.702 153.89 148.681 153.703 149.598 153.322C150.526 152.93 151.332 152.396 152.016 151.72C152.712 151.033 153.256 150.234 153.648 149.322C154.053 148.399 154.258 147.416 154.264 146.373ZM169.595 154.469C169.782 154.528 169.969 154.571 170.157 154.595C170.344 154.608 170.532 154.615 170.719 154.616C171.188 154.619 171.639 154.558 172.074 154.432C172.508 154.306 172.914 154.126 173.29 153.894C173.678 153.651 174.02 153.36 174.315 153.022C174.622 152.672 174.87 152.287 175.061 151.867L178.554 155.422C178.105 156.052 177.586 156.617 176.996 157.117C176.419 157.618 175.789 158.041 175.108 158.389C174.437 158.736 173.727 158.995 172.976 159.166C172.236 159.349 171.474 159.438 170.689 159.433C169.365 159.424 168.118 159.17 166.949 158.671C165.792 158.171 164.777 157.479 163.904 156.595C163.042 155.71 162.363 154.663 161.867 153.453C161.37 152.231 161.127 150.893 161.136 149.44C161.145 147.952 161.406 146.594 161.917 145.367C162.429 144.14 163.121 143.095 163.994 142.234C164.878 141.372 165.902 140.705 167.065 140.232C168.24 139.759 169.489 139.526 170.813 139.535C171.599 139.54 172.366 139.638 173.114 139.831C173.863 140.023 174.57 140.297 175.236 140.653C175.914 141.009 176.544 141.446 177.126 141.966C177.709 142.473 178.221 143.045 178.663 143.68L169.595 154.469ZM172.118 144.588C171.896 144.505 171.673 144.45 171.451 144.426C171.24 144.401 171.017 144.388 170.783 144.386C170.127 144.382 169.505 144.501 168.918 144.743C168.342 144.974 167.836 145.311 167.399 145.753C166.975 146.196 166.637 146.733 166.387 147.364C166.137 147.984 166.01 148.686 166.005 149.471C166.004 149.647 166.009 149.846 166.019 150.069C166.041 150.292 166.069 150.52 166.102 150.755C166.148 150.978 166.199 151.195 166.257 151.406C166.314 151.618 166.389 151.806 166.482 151.97L172.118 144.588ZM191.327 159.212L180.359 159.143L180.389 154.361L191.357 154.431C191.685 154.433 191.967 154.318 192.203 154.085C192.439 153.852 192.558 153.572 192.56 153.243C192.562 152.904 192.446 152.68 192.213 152.573C191.979 152.466 191.698 152.412 191.37 152.41L186.378 152.378C185.546 152.373 184.768 152.21 184.043 151.889C183.318 151.568 182.688 151.136 182.153 150.593C181.617 150.039 181.193 149.398 180.881 148.669C180.581 147.941 180.434 147.16 180.439 146.328C180.444 145.496 180.601 144.718 180.911 143.993C181.232 143.269 181.663 142.639 182.206 142.103C182.748 141.568 183.384 141.15 184.112 140.85C184.841 140.538 185.621 140.385 186.453 140.39L196.173 140.452L196.143 145.233L186.423 145.171C186.095 145.169 185.813 145.284 185.577 145.517C185.341 145.75 185.222 146.031 185.22 146.359C185.218 146.699 185.333 146.992 185.566 147.24C185.799 147.476 186.08 147.595 186.408 147.597L191.4 147.629C192.22 147.634 192.993 147.779 193.718 148.065C194.442 148.339 195.073 148.724 195.609 149.22C196.145 149.715 196.569 150.31 196.881 151.003C197.193 151.697 197.346 152.454 197.341 153.274C197.336 154.106 197.173 154.884 196.852 155.609C196.531 156.322 196.099 156.952 195.557 157.499C195.014 158.035 194.379 158.458 193.65 158.77C192.922 159.07 192.148 159.218 191.327 159.212ZM205.68 135.362C205.677 135.807 205.587 136.222 205.409 136.608C205.242 136.994 205.011 137.332 204.717 137.623C204.422 137.903 204.075 138.129 203.675 138.302C203.288 138.464 202.871 138.543 202.426 138.54C201.98 138.537 201.559 138.453 201.162 138.286C200.776 138.108 200.438 137.877 200.146 137.594C199.867 137.299 199.641 136.958 199.467 136.57C199.306 136.182 199.226 135.766 199.229 135.321C199.232 134.887 199.316 134.477 199.483 134.092C199.661 133.694 199.892 133.356 200.175 133.077C200.47 132.786 200.811 132.559 201.199 132.398C201.598 132.224 202.021 132.139 202.466 132.142C202.911 132.145 203.327 132.235 203.712 132.414C204.11 132.58 204.454 132.811 204.745 133.106C205.036 133.389 205.263 133.73 205.424 134.13C205.597 134.517 205.683 134.928 205.68 135.362ZM204.704 159.297L199.87 159.267L199.988 140.441L204.822 140.472L204.704 159.297ZM221.832 149.826C221.836 149.17 221.711 148.536 221.457 147.925C221.215 147.302 220.879 146.755 220.448 146.284C220.017 145.801 219.51 145.417 218.926 145.132C218.353 144.835 217.739 144.685 217.083 144.68C216.427 144.676 215.805 144.784 215.218 145.003C214.642 145.222 214.136 145.546 213.7 145.977C213.275 146.408 212.938 146.945 212.688 147.588C212.438 148.219 212.31 148.945 212.305 149.765C212.3 150.551 212.419 151.26 212.661 151.895C212.903 152.517 213.234 153.053 213.653 153.501C214.083 153.949 214.585 154.298 215.158 154.547C215.742 154.785 216.363 154.906 217.019 154.911C217.675 154.915 218.291 154.778 218.867 154.501C219.455 154.211 219.967 153.834 220.404 153.368C220.84 152.89 221.183 152.347 221.433 151.739C221.695 151.12 221.828 150.482 221.832 149.826ZM226.621 157.064C226.612 158.388 226.353 159.628 225.842 160.785C225.33 161.942 224.633 162.951 223.748 163.813C222.876 164.675 221.852 165.354 220.677 165.85C219.514 166.347 218.27 166.591 216.946 166.582L214.538 166.532L214.568 161.733L216.941 161.783C217.691 161.788 218.33 161.693 218.859 161.497C219.387 161.313 219.834 161.052 220.199 160.714C220.565 160.388 220.854 160.009 221.068 159.577C221.293 159.145 221.472 158.689 221.604 158.209C221.414 158.513 221.143 158.763 220.79 158.96C220.438 159.145 220.044 159.295 219.61 159.41C219.187 159.536 218.741 159.621 218.272 159.665C217.815 159.709 217.387 159.73 216.989 159.727C215.664 159.719 214.418 159.482 213.249 159.018C212.092 158.553 211.076 157.896 210.203 157.047C209.341 156.186 208.662 155.139 208.166 153.905C207.669 152.672 207.426 151.281 207.436 149.734C207.445 148.316 207.705 147 208.216 145.784C208.728 144.569 209.42 143.518 210.293 142.633C211.177 141.748 212.201 141.058 213.364 140.561C214.539 140.065 215.789 139.821 217.113 139.829C217.723 139.833 218.326 139.913 218.922 140.069C219.519 140.225 220.098 140.44 220.659 140.713C221.219 140.986 221.751 141.306 222.252 141.672C222.766 142.039 223.244 142.434 223.686 142.859L225.563 140.639L226.724 140.646L226.621 157.064ZM235.078 159.49L230.28 159.46L230.398 140.634L231.558 140.641L233.128 142.48C233.906 141.781 234.782 141.248 235.757 140.879C236.744 140.499 237.771 140.312 238.837 140.319C239.986 140.326 241.068 140.555 242.085 141.007C243.102 141.447 243.989 142.056 244.745 142.835C245.502 143.601 246.094 144.501 246.521 145.535C246.96 146.558 247.176 147.649 247.169 148.809L247.102 159.567L242.303 159.536L242.37 148.779C242.373 148.286 242.282 147.823 242.098 147.388C241.913 146.942 241.658 146.553 241.332 146.223C241.005 145.893 240.626 145.633 240.194 145.443C239.761 145.252 239.299 145.156 238.807 145.152C238.303 145.149 237.828 145.24 237.381 145.425C236.935 145.609 236.547 145.865 236.216 146.191C235.886 146.517 235.626 146.902 235.436 147.346C235.246 147.778 235.149 148.241 235.146 148.733L235.078 159.49Z" fill="#AC7F09"/>
</svg>
