<svg width="255" height="197" viewBox="0 0 255 197" fill="none" xmlns="http://www.w3.org/2000/svg">
<path d="M0.658269 0.858612H254.231V195.264H0.658269V0.858612Z" fill="white"/>
<path d="M98.9332 162.973C98.9267 164.885 101.528 165.345 102.053 163.507C106.217 148.944 108.777 132.66 108.833 115.938C109.019 60.9554 82.0742 22.0586 59.7281 21.983C37.3819 21.9073 8.38317 60.6146 8.19699 115.597C8.14039 132.314 10.7538 148.611 15.0469 163.2C15.5545 164.925 18.0045 164.497 18.0106 162.699V162.699C18.1968 107.716 36.4628 63.2056 58.809 63.2813C81.1551 63.357 99.1193 107.99 98.9332 162.973V162.973Z" fill="#0F4361"/>
<path d="M98.9332 162.973C98.9267 164.885 101.528 165.345 102.053 163.507C106.217 148.944 108.777 132.66 108.833 115.938C109.019 60.9554 82.0742 22.0586 59.7281 21.983C37.3819 21.9073 8.38317 60.6146 8.19699 115.597C8.14039 132.314 10.7538 148.611 15.0469 163.2C15.5545 164.925 18.0045 164.497 18.0106 162.699V162.699C18.1968 107.716 36.4628 63.2056 58.809 63.2813C81.1551 63.357 99.1193 107.99 98.9332 162.973V162.973Z" fill="#0F4361"/>
<path d="M29.7978 103.033L88.2053 103.231L94.9518 123.233L58.4471 123.11L21.9425 122.986L29.7978 103.033Z" fill="#AC7F09"/>
<path d="M126.911 112.393L129.583 112.402L127.107 106.452L119.162 106.425L116.768 112.464L121.303 112.479L121.301 113.024L112.073 112.993L112.075 112.378L116.118 112.392L122.713 95.9607L126.205 87.2713L137.317 112.428L140.552 112.439L140.549 113.09L126.909 113.043L126.911 112.393ZM119.41 105.776L126.828 105.801L123.044 96.788L119.41 105.776ZM139.143 97.6335L147.968 97.4525L147.846 102.251C148.059 101.724 148.3 101.221 148.572 100.742C148.855 100.25 149.172 99.8121 149.525 99.4265C149.878 99.041 150.272 98.7259 150.706 98.4813C151.141 98.225 151.622 98.0684 152.149 98.0116C152.817 98.0138 153.444 98.139 154.029 98.3871C154.614 98.6234 155.146 98.9534 155.625 99.3769C156.116 99.7887 156.548 100.276 156.921 100.84C157.294 101.404 157.608 102.003 157.864 102.636C158.12 103.27 158.305 103.921 158.42 104.589C158.535 105.246 158.58 105.891 158.554 106.524C158.54 107.18 158.52 107.854 158.494 108.545C158.469 109.142 158.437 109.804 158.4 110.531C158.374 111.246 158.336 111.949 158.287 112.64L160.766 112.683L160.763 113.334L151.008 113.09L151.011 112.439L152.926 112.481C153.218 109.353 153.299 106.183 153.17 102.972C153.21 101.507 153.131 100.441 152.934 99.7721C152.749 99.1035 152.352 98.7564 151.743 98.7309C151.543 98.7888 151.279 98.8993 150.95 99.0622C150.622 99.2252 150.269 99.5111 149.893 99.92C149.528 100.317 149.157 100.867 148.78 101.569C148.414 102.259 148.089 103.154 147.804 104.255L147.6 112.428L149.429 112.434L149.426 113.084L140.286 113.054L140.288 112.403L141.87 112.408L142.27 98.2242L139.14 98.2839L139.143 97.6335ZM169.481 113.803C169.475 115.338 169.248 116.679 168.799 117.826C168.362 118.973 167.772 119.932 167.031 120.703C166.291 121.474 165.439 122.051 164.477 122.434C163.526 122.83 162.535 123.037 161.504 123.057C160.801 123.055 160.051 122.964 159.255 122.786C158.447 122.607 157.704 122.323 157.025 121.934C156.335 121.545 155.769 121.04 155.325 120.417C154.87 119.806 154.644 119.061 154.647 118.182C154.648 117.854 154.696 117.532 154.791 117.216C154.874 116.9 155.004 116.613 155.181 116.356C155.358 116.11 155.587 115.894 155.869 115.708C156.151 115.533 156.485 115.411 156.872 115.342C157.517 115.239 158.05 115.293 158.471 115.506C158.892 115.73 159.213 116.03 159.435 116.405C159.656 116.781 159.795 117.198 159.852 117.655C159.898 118.124 159.884 118.546 159.813 118.92C159.753 119.155 159.712 119.395 159.687 119.641C159.651 119.887 159.633 120.127 159.632 120.361C159.631 120.607 159.66 120.848 159.718 121.082C159.764 121.317 159.857 121.528 159.997 121.716C160.137 121.904 160.33 122.057 160.575 122.175C160.821 122.305 161.131 122.382 161.506 122.407C162.057 122.409 162.509 122.217 162.862 121.831C163.226 121.446 163.509 120.931 163.711 120.287C163.924 119.655 164.073 118.923 164.158 118.091C164.242 117.271 164.286 116.422 164.289 115.543L164.342 99.9865L161.037 99.9753L161.039 99.3425L169.53 99.2833L169.481 113.803ZM170.126 94.4338C170.125 94.8673 170.041 95.2772 169.876 95.6634C169.722 96.0379 169.505 96.3653 169.222 96.6456C168.94 96.9258 168.611 97.1474 168.236 97.3102C167.86 97.473 167.456 97.5536 167.022 97.5522C166.588 97.5507 166.179 97.4673 165.792 97.3019C165.418 97.1366 165.091 96.9128 164.81 96.6306C164.53 96.3484 164.308 96.0195 164.146 95.644C163.983 95.2567 163.902 94.8463 163.904 94.4127C163.905 93.9791 163.989 93.5751 164.154 93.2006C164.319 92.8262 164.543 92.4988 164.825 92.2185C165.107 91.9382 165.436 91.7225 165.812 91.5715C166.199 91.4087 166.609 91.3281 167.043 91.3295C167.477 91.331 167.881 91.4144 168.255 91.5797C168.63 91.7334 168.957 91.9513 169.237 92.2335C169.518 92.5157 169.733 92.8445 169.884 93.22C170.047 93.5956 170.128 94.0002 170.126 94.4338ZM189.833 99.3169L189.348 112.745L191.176 112.575L191.244 113.226L184.405 113.818L184.449 110.935C184.249 111.368 184.042 111.749 183.83 112.076C183.618 112.403 183.401 112.69 183.177 112.935C182.965 113.169 182.754 113.367 182.542 113.531C182.331 113.706 182.131 113.846 181.943 113.95C181.497 114.207 181.057 114.352 180.623 114.385C179.604 114.382 178.714 114.174 177.954 113.761C177.193 113.36 176.562 112.825 176.06 112.155C175.559 111.485 175.181 110.728 174.926 109.884C174.682 109.027 174.562 108.154 174.565 107.263L174.96 99.7763L172.868 99.7341L172.87 99.0837L180.534 99.2151C180.269 101.359 180.064 103.169 179.918 104.645C179.784 106.109 179.686 107.298 179.625 108.212C179.551 109.29 179.507 110.157 179.493 110.813C179.491 111.423 179.536 111.915 179.628 112.29C179.721 112.666 179.843 112.959 179.995 113.17C180.146 113.382 180.31 113.523 180.485 113.594C180.661 113.677 180.831 113.724 180.995 113.736C181.241 113.679 181.511 113.562 181.804 113.387C182.11 113.213 182.415 112.944 182.721 112.582C183.039 112.208 183.345 111.723 183.64 111.126C183.935 110.529 184.207 109.792 184.456 108.914L184.61 99.9145L182.008 99.8705L182.011 99.2201L189.833 99.3169ZM192.704 112.985L195.411 112.994L195.963 90.2673L192.869 90.1865L192.872 89.5361L201.221 89.7226L200.632 113.012L204.2 113.024L204.198 113.657L192.702 113.618L192.704 112.985ZM218.593 114.039C218.851 114.017 219.098 113.889 219.333 113.655C219.533 113.457 219.739 113.141 219.951 112.708C220.164 112.263 220.342 111.631 220.485 110.811L221.135 110.884C220.968 111.856 220.743 112.599 220.46 113.114C220.189 113.629 219.912 114.003 219.63 114.236C219.301 114.516 218.955 114.668 218.591 114.69C218.31 114.689 217.947 114.647 217.502 114.563C217.068 114.48 216.635 114.332 216.203 114.119C215.77 113.918 215.372 113.648 215.01 113.307C214.648 112.965 214.397 112.531 214.258 112.003C213.775 112.81 213.129 113.464 212.318 113.965C211.508 114.478 210.587 114.733 209.556 114.729C209.04 114.728 208.519 114.667 207.992 114.548C207.465 114.429 206.979 114.234 206.535 113.963C206.102 113.692 205.746 113.34 205.466 112.905C205.198 112.459 205.065 111.908 205.068 111.251C205.07 110.431 205.231 109.723 205.549 109.126C205.88 108.518 206.315 108.015 206.855 107.619C207.396 107.21 208.012 106.908 208.704 106.711C209.396 106.514 210.111 106.417 210.85 106.419C211.354 106.421 211.84 106.481 212.308 106.6C212.788 106.719 213.274 106.926 213.765 107.22C213.79 106.623 213.839 106.025 213.912 105.428C213.996 104.83 214.068 104.274 214.128 103.759C214.164 103.454 214.189 103.208 214.201 103.021C214.225 102.833 214.243 102.681 214.255 102.564C214.267 102.447 214.274 102.359 214.274 102.3C214.286 102.242 214.292 102.189 214.292 102.142C214.295 101.076 214.105 100.225 213.72 99.5912C213.336 98.957 212.821 98.6389 212.177 98.6367C211.872 98.6591 211.561 98.7108 211.245 98.7918C210.928 98.8727 210.64 98.9889 210.382 99.1404C210.124 99.2802 209.912 99.4611 209.747 99.6832C209.583 99.8936 209.5 100.145 209.499 100.438C209.498 100.755 209.596 101.007 209.795 101.195C209.994 101.372 210.21 101.554 210.444 101.742C210.689 101.919 210.911 102.125 211.109 102.36C211.308 102.595 211.406 102.917 211.405 103.327C211.404 103.761 211.332 104.124 211.19 104.417C211.061 104.697 210.884 104.925 210.661 105.1C210.437 105.275 210.185 105.403 209.904 105.485C209.622 105.554 209.341 105.588 209.059 105.587C208.767 105.586 208.474 105.538 208.181 105.444C207.9 105.337 207.643 105.178 207.409 104.966C207.187 104.755 207.001 104.479 206.85 104.138C206.71 103.798 206.641 103.388 206.643 102.907C206.645 102.263 206.805 101.648 207.124 101.063C207.442 100.478 207.86 99.9639 208.377 99.5203C208.894 99.0768 209.481 98.7213 210.138 98.454C210.796 98.175 211.464 98.0249 212.144 98.0038C212.777 98.0059 213.462 98.1372 214.199 98.3975C214.948 98.6578 215.644 99.0996 216.286 99.7229C216.941 100.346 217.483 101.18 217.913 102.225C218.343 103.269 218.555 104.576 218.55 106.147C218.547 106.885 218.516 107.588 218.455 108.256C218.406 108.923 218.351 109.544 218.29 110.118C218.23 110.681 218.169 111.196 218.109 111.665C218.061 112.133 218.036 112.537 218.035 112.877C218.034 113.217 218.062 113.487 218.12 113.686C218.19 113.886 218.324 114.003 218.523 114.039L218.593 114.039ZM213.963 111.071C213.894 110.672 213.843 110.256 213.809 109.822C213.775 109.377 213.759 108.931 213.761 108.486L213.762 108.011C213.435 107.741 213.078 107.54 212.692 107.41C212.317 107.28 211.978 107.214 211.673 107.213C210.935 107.211 210.371 107.513 209.983 108.122C209.594 108.73 209.398 109.538 209.394 110.545C209.393 110.967 209.433 111.36 209.513 111.723C209.606 112.087 209.728 112.404 209.879 112.674C210.042 112.932 210.235 113.138 210.457 113.291C210.691 113.433 210.949 113.504 211.23 113.505C211.511 113.506 211.781 113.436 212.039 113.296C212.309 113.157 212.562 112.976 212.797 112.754C213.032 112.521 213.25 112.258 213.45 111.965C213.65 111.673 213.821 111.375 213.963 111.071Z" fill="#0F4361"/>
<path d="M127.065 162.081L122.037 162.05L122.164 141.888L114.588 141.84L114.619 136.795L134.781 136.923L134.749 141.968L127.191 141.92L127.065 162.081ZM142.595 138.238C142.592 138.684 142.502 139.099 142.324 139.485C142.157 139.87 141.926 140.209 141.632 140.5C141.337 140.779 140.99 141.005 140.59 141.179C140.202 141.34 139.786 141.42 139.341 141.417C138.895 141.414 138.474 141.329 138.077 141.163C137.691 140.985 137.353 140.754 137.061 140.471C136.782 140.176 136.556 139.835 136.382 139.447C136.221 139.059 136.141 138.643 136.144 138.197C136.147 137.764 136.231 137.354 136.398 136.968C136.576 136.571 136.807 136.233 137.09 135.953C137.384 135.662 137.726 135.436 138.113 135.274C138.513 135.101 138.935 135.016 139.381 135.019C139.826 135.021 140.241 135.112 140.627 135.29C141.025 135.457 141.369 135.687 141.66 135.982C141.951 136.265 142.177 136.607 142.339 137.006C142.512 137.394 142.598 137.805 142.595 138.238ZM141.619 162.174L136.785 162.143L136.903 143.317L141.737 143.348L141.619 162.174ZM169.234 162.349L164.452 162.319L164.527 150.366C164.529 150.038 164.467 149.727 164.34 149.433C164.224 149.14 164.056 148.881 163.835 148.657C163.614 148.433 163.357 148.261 163.065 148.142C162.772 148.011 162.462 147.945 162.134 147.943C161.806 147.941 161.495 148.003 161.201 148.13C160.919 148.246 160.666 148.414 160.442 148.635C160.23 148.856 160.059 149.113 159.928 149.405C159.809 149.698 159.748 150.008 159.746 150.336L159.671 162.289L154.873 162.258L154.947 150.305C154.949 149.977 154.887 149.666 154.76 149.372C154.645 149.079 154.476 148.82 154.255 148.596C154.034 148.372 153.777 148.2 153.485 148.081C153.193 147.95 152.882 147.884 152.554 147.882C152.226 147.88 151.915 147.942 151.622 148.069C151.34 148.185 151.087 148.353 150.862 148.574C150.65 148.796 150.479 149.052 150.348 149.344C150.229 149.637 150.168 149.947 150.166 150.275L150.091 162.228L145.293 162.197L145.411 143.372L146.571 143.379L147.862 144.829C148.534 144.27 149.269 143.841 150.068 143.542C150.878 143.23 151.717 143.078 152.584 143.083C153.463 143.089 154.318 143.258 155.148 143.592C155.989 143.925 156.724 144.498 157.352 145.311C157.647 144.914 157.983 144.576 158.36 144.298C158.737 144.019 159.131 143.793 159.542 143.62C159.965 143.446 160.399 143.326 160.845 143.259C161.291 143.179 161.731 143.141 162.164 143.144C163.16 143.15 164.091 143.344 164.956 143.724C165.832 144.105 166.591 144.625 167.231 145.286C167.883 145.934 168.394 146.699 168.764 147.581C169.133 148.462 169.315 149.4 169.308 150.397L169.234 162.349ZM183.085 162.437L172.116 162.368L172.146 157.587L183.115 157.656C183.443 157.658 183.725 157.543 183.961 157.31C184.197 157.077 184.316 156.797 184.318 156.469C184.32 156.129 184.204 155.905 183.97 155.798C183.737 155.691 183.456 155.637 183.127 155.635L178.135 155.603C177.303 155.598 176.525 155.435 175.801 155.114C175.076 154.793 174.446 154.361 173.91 153.818C173.375 153.264 172.951 152.623 172.639 151.894C172.339 151.166 172.191 150.386 172.197 149.554C172.202 148.722 172.359 147.943 172.668 147.219C172.989 146.494 173.421 145.864 173.963 145.328C174.506 144.793 175.141 144.375 175.87 144.075C176.598 143.763 177.378 143.61 178.21 143.615L187.931 143.677L187.901 148.458L178.181 148.396C177.852 148.394 177.57 148.51 177.335 148.742C177.099 148.975 176.98 149.256 176.978 149.584C176.976 149.924 177.091 150.217 177.324 150.465C177.557 150.701 177.837 150.82 178.165 150.822L183.157 150.854C183.978 150.859 184.75 151.004 185.475 151.29C186.2 151.564 186.83 151.949 187.366 152.445C187.902 152.941 188.326 153.535 188.638 154.228C188.95 154.922 189.104 155.679 189.099 156.499C189.094 157.331 188.93 158.109 188.61 158.834C188.289 159.547 187.857 160.177 187.314 160.724C186.772 161.26 186.137 161.683 185.408 161.995C184.68 162.295 183.905 162.443 183.085 162.437ZM197.438 138.587C197.435 139.032 197.344 139.448 197.166 139.833C197 140.219 196.769 140.557 196.474 140.848C196.18 141.128 195.832 141.354 195.433 141.527C195.045 141.689 194.629 141.768 194.183 141.765C193.738 141.763 193.317 141.678 192.919 141.511C192.534 141.333 192.195 141.102 191.904 140.819C191.625 140.525 191.398 140.183 191.225 139.795C191.063 139.408 190.984 138.991 190.987 138.546C190.989 138.112 191.074 137.703 191.24 137.317C191.419 136.92 191.649 136.581 191.932 136.302C192.227 136.011 192.568 135.784 192.956 135.623C193.356 135.449 193.778 135.364 194.223 135.367C194.669 135.37 195.084 135.46 195.47 135.639C195.867 135.805 196.211 136.036 196.503 136.331C196.794 136.614 197.02 136.955 197.182 137.355C197.355 137.743 197.44 138.153 197.438 138.587ZM196.462 162.522L191.628 162.492L191.746 143.666L196.579 143.697L196.462 162.522ZM204.934 162.576L200.135 162.546L200.253 143.72L201.413 143.727L202.984 145.566C203.762 144.867 204.638 144.334 205.613 143.965C206.6 143.585 207.626 143.398 208.693 143.405C209.841 143.412 210.924 143.641 211.941 144.093C212.957 144.533 213.844 145.142 214.601 145.921C215.358 146.687 215.95 147.587 216.377 148.621C216.816 149.644 217.032 150.735 217.025 151.895L216.957 162.653L212.159 162.622L212.226 151.865C212.229 151.372 212.138 150.909 211.953 150.474C211.769 150.028 211.513 149.639 211.187 149.309C210.861 148.979 210.482 148.719 210.049 148.528C209.617 148.338 209.155 148.242 208.663 148.238C208.159 148.235 207.684 148.326 207.237 148.511C206.791 148.695 206.402 148.951 206.072 149.277C205.742 149.603 205.482 149.988 205.291 150.432C205.101 150.864 205.005 151.327 205.001 151.819L204.934 162.576ZM238.613 162.79L237.453 162.783L235.606 160.187C235.146 160.594 234.658 160.978 234.14 161.338C233.634 161.686 233.098 161.994 232.534 162.26C231.97 162.514 231.389 162.715 230.79 162.864C230.203 163.012 229.605 163.085 228.996 163.081C227.672 163.072 226.425 162.842 225.256 162.389C224.099 161.936 223.083 161.285 222.21 160.436C221.348 159.575 220.669 158.528 220.173 157.294C219.676 156.06 219.433 154.659 219.443 153.088C219.452 151.623 219.713 150.283 220.224 149.068C220.736 147.84 221.428 146.79 222.3 145.917C223.185 145.044 224.209 144.37 225.372 143.897C226.547 143.412 227.796 143.174 229.12 143.183C229.73 143.187 230.333 143.267 230.93 143.423C231.526 143.579 232.105 143.794 232.666 144.067C233.227 144.34 233.758 144.66 234.259 145.026C234.773 145.393 235.251 145.788 235.693 146.213L237.571 143.992L238.731 144L238.613 162.79ZM233.839 153.18C233.843 152.523 233.718 151.89 233.464 151.279C233.222 150.656 232.886 150.109 232.455 149.638C232.025 149.154 231.517 148.77 230.933 148.485C230.361 148.189 229.746 148.038 229.09 148.034C228.434 148.03 227.812 148.137 227.225 148.356C226.649 148.575 226.143 148.9 225.707 149.331C225.282 149.762 224.945 150.299 224.695 150.942C224.445 151.573 224.317 152.299 224.312 153.119C224.307 153.939 224.425 154.673 224.667 155.319C224.91 155.953 225.24 156.488 225.659 156.925C226.09 157.361 226.592 157.692 227.165 157.919C227.749 158.145 228.37 158.26 229.026 158.264C229.682 158.269 230.298 158.132 230.874 157.854C231.462 157.565 231.974 157.187 232.411 156.722C232.847 156.244 233.191 155.701 233.44 155.093C233.702 154.474 233.835 153.836 233.839 153.18Z" fill="#AC7F09"/>
</svg>
